<svg width="1567" height="662" viewBox="0 0 1567 662" fill="none" xmlns="http://www.w3.org/2000/svg">
<path d="M1 197V1H105H201H311H377H499H599H709H785H861H919H1001H1059H1137H1269H1379V373H1269V1H1137V261H1059V135V1H1001V329V661H919V1H861V135V273H785V1H709V157H599V1H499V503H377V1H311V349H201V1H105V197H1Z" fill="url(#paint0_linear)"/>
<path d="M861 273H785V1H709V157H599V1H499V503H377V1H311V349H201V1H105V197H1V1H1567H1379V373H1269V1H1137V261H1059V135V1H1001V329V661H919V1H861M861 273L815 137L861 1M861 273V135V1" stroke="black"/>
<defs>
<linearGradient id="paint0_linear" x1="784" y1="1" x2="784" y2="661" gradientUnits="userSpaceOnUse">
<stop stop-color="#510BE6"/>
<stop offset="1" stop-color="#392662" stop-opacity="0"/>
</linearGradient>
</defs>
</svg>
